<?xml version="1.0" encoding="UTF-8" standalone="no"?>
<!-- Created with Inkscape (http://www.inkscape.org/) -->

<svg
   xmlns:dc="http://purl.org/dc/elements/1.1/"
   xmlns:cc="http://creativecommons.org/ns#"
   xmlns:rdf="http://www.w3.org/1999/02/22-rdf-syntax-ns#"
   xmlns:svg="http://www.w3.org/2000/svg"
   xmlns="http://www.w3.org/2000/svg"
   xmlns:sodipodi="http://sodipodi.sourceforge.net/DTD/sodipodi-0.dtd"
   xmlns:inkscape="http://www.inkscape.org/namespaces/inkscape"
   width="210mm"
   height="297mm"
   viewBox="0 0 210 297"
   version="1.1"
   id="svg8"
   inkscape:version="0.92.3 (2405546, 2018-03-11)"
   sodipodi:docname="yglu-banner.svg"
   inkscape:export-filename="/home/shaman/work/yglu/yglu-banner.png"
   inkscape:export-xdpi="345.36801"
   inkscape:export-ydpi="345.36801">
  <defs
     id="defs2" />
  <sodipodi:namedview
     id="base"
     pagecolor="#ffffff"
     bordercolor="#666666"
     borderopacity="1.0"
     inkscape:pageopacity="0.0"
     inkscape:pageshadow="2"
     inkscape:zoom="0.7"
     inkscape:cx="321.24668"
     inkscape:cy="868.70586"
     inkscape:document-units="mm"
     inkscape:current-layer="layer1"
     showgrid="false"
     inkscape:window-width="1920"
     inkscape:window-height="1030"
     inkscape:window-x="0"
     inkscape:window-y="0"
     inkscape:window-maximized="1" />
  <metadata
     id="metadata5">
    <rdf:RDF>
      <cc:Work
         rdf:about="">
        <dc:format>image/svg+xml</dc:format>
        <dc:type
           rdf:resource="http://purl.org/dc/dcmitype/StillImage" />
        <dc:title></dc:title>
      </cc:Work>
    </rdf:RDF>
  </metadata>
  <g
     inkscape:label="Layer 1"
     inkscape:groupmode="layer"
     id="layer1">
    <rect
       style="opacity:1;fill:#009eff;fill-opacity:1;fill-rule:evenodd;stroke:none;stroke-width:1.57282794;stroke-linecap:round;stroke-linejoin:round;stroke-miterlimit:4;stroke-dasharray:none;stroke-opacity:1"
       id="rect815"
       width="519.67841"
       height="64.946495"
       x="-157.80872"
       y="0.33082432"
       inkscape:export-xdpi="345.36801"
       inkscape:export-ydpi="345.36801" />
  </g>
  <g
     inkscape:groupmode="layer"
     id="layer3"
     inkscape:label="Layer 3"
     style="display:inline">
    <ellipse
       style="opacity:1;fill:#ddf2fd;fill-opacity:1;fill-rule:evenodd;stroke:#2977b9;stroke-width:1.27400005;stroke-linecap:round;stroke-linejoin:round;stroke-miterlimit:4;stroke-dasharray:none;stroke-opacity:1"
       id="path847"
       cx="148.50777"
       cy="24.274378"
       rx="15.36475"
       ry="11.088436" />
    <rect
       style="opacity:1;fill:#ddf2fd;fill-opacity:1;fill-rule:evenodd;stroke:none;stroke-width:0.79112494;stroke-linecap:round;stroke-linejoin:round;stroke-miterlimit:4;stroke-dasharray:none;stroke-opacity:1"
       id="rect849"
       width="15.509102"
       height="22.542868"
       x="98.852173"
       y="42.789124" />
    <g
       aria-label="!"
       transform="matrix(0.97543113,-0.26090386,0.25590433,0.95673959,0,0)"
       style="font-style:normal;font-variant:normal;font-weight:normal;font-stretch:normal;font-size:14.82387924px;line-height:120.00000477%;font-family:Bangers;-inkscape-font-specification:'Bangers, Normal';font-variant-ligatures:normal;font-variant-caps:normal;font-variant-numeric:normal;font-feature-settings:normal;text-align:start;letter-spacing:0px;word-spacing:0px;writing-mode:lr-tb;text-anchor:start;fill:#2977b9;fill-opacity:1;stroke:none;stroke-width:0.79413944px;stroke-linecap:butt;stroke-linejoin:miter;stroke-opacity:1"
       id="text853">
      <path
         d="m 133.20811,62.877572 q -0.42989,0 -0.85979,0.02965 -0.42989,0.02965 -0.85978,0.0593 0.45954,-1.823337 0.88943,-3.631851 0.44472,-1.808513 0.91908,-3.63185 0.28165,-0.04447 0.63743,-0.08894 0.37059,-0.04447 0.74119,-0.103767 0.3706,-0.0593 0.71155,-0.103768 0.35577,-0.04447 0.59295,-0.08894 -0.80049,1.867809 -1.46756,3.765266 -0.65225,1.882632 -1.3045,3.794913 z m 0.14824,2.327349 q 0,0.281653 -0.13342,0.563307 -0.11859,0.281654 -0.35577,0.504012 -0.23718,0.207534 -0.59296,0.326125 -0.35577,0.133415 -0.81531,0.133415 -0.3113,0 -0.56331,-0.118591 -0.252,-0.118591 -0.41507,-0.311301 -0.14823,-0.207535 -0.23718,-0.459541 -0.0889,-0.252005 -0.0889,-0.504011 0,-0.281654 0.0889,-0.53366 0.089,-0.26683 0.26683,-0.45954 0.19271,-0.207535 0.45954,-0.34095 0.28166,-0.133414 0.66708,-0.133414 0.85978,0 1.28967,0.415068 0.4299,0.400245 0.4299,0.919081 z"
         style="font-style:normal;font-variant:normal;font-weight:normal;font-stretch:normal;font-size:14.82387924px;font-family:Bangers;-inkscape-font-specification:'Bangers, Normal';font-variant-ligatures:normal;font-variant-caps:normal;font-variant-numeric:normal;font-feature-settings:normal;text-align:start;writing-mode:lr-tb;text-anchor:start;fill:#2977b9;fill-opacity:1;stroke:none;stroke-width:0.79413944px;stroke-opacity:1"
         id="path904" />
    </g>
    <g
       aria-label="?"
       transform="scale(1.0097211,0.99037249)"
       style="font-style:normal;font-variant:normal;font-weight:normal;font-stretch:normal;font-size:14.82387924px;line-height:120.00000477%;font-family:Bangers;-inkscape-font-specification:'Bangers, Normal';font-variant-ligatures:normal;font-variant-caps:normal;font-variant-numeric:normal;font-feature-settings:normal;text-align:start;letter-spacing:0px;word-spacing:0px;writing-mode:lr-tb;text-anchor:start;fill:#2977b9;fill-opacity:1;stroke:none;stroke-width:0.79413944px;stroke-linecap:butt;stroke-linejoin:miter;stroke-opacity:1"
       id="text853-1">
      <path
         d="m 147.53775,25.973355 q 0,-0.80049 0.22236,-1.423093 0.23718,-0.622603 0.57813,-1.096967 0.34095,-0.489188 0.72637,-0.859785 0.40025,-0.385421 0.7412,-0.681898 0.34095,-0.311302 0.5633,-0.548484 0.22236,-0.252006 0.22236,-0.489188 0,-0.08894 -0.11859,-0.237182 -0.11859,-0.163062 -0.3706,-0.163062 -0.28165,0 -0.69672,0.237182 -0.40024,0.222358 -0.81531,0.533659 -0.41507,0.296478 -0.85979,0.696723 l -0.78566,-1.823337 q 0.75602,-0.681899 1.70474,-1.06732 0.94873,-0.400245 1.92711,-0.400245 0.47436,0 0.88943,0.103768 0.42989,0.08894 0.74119,0.326125 0.32613,0.222358 0.51884,0.592955 0.19271,0.355773 0.19271,0.874609 0,0.72637 -0.23718,1.245206 -0.23718,0.504012 -0.59296,0.889433 -0.34095,0.38542 -0.78566,0.711546 -0.42989,0.326125 -0.83014,0.667074 -0.40024,0.34095 -0.72637,0.756018 -0.32612,0.415069 -0.45954,0.978376 l -0.87461,0.08894 z m 2.44594,2.149462 q 0,0.311302 -0.13341,0.607779 -0.13342,0.296478 -0.40025,0.548484 -0.26683,0.237182 -0.66707,0.385421 -0.38542,0.148239 -0.87461,0.148239 -0.59296,0 -0.87461,-0.355774 -0.28165,-0.370597 -0.28165,-0.874608 0,-0.281654 0.10376,-0.563308 0.10377,-0.296477 0.31131,-0.53366 0.22235,-0.237182 0.53366,-0.38542 0.3113,-0.148239 0.71154,-0.148239 0.81531,0 1.18591,0.355773 0.38542,0.355773 0.38542,0.815313 z"
         style="font-style:normal;font-variant:normal;font-weight:normal;font-stretch:normal;font-size:14.82387924px;font-family:Bangers;-inkscape-font-specification:'Bangers, Normal';font-variant-ligatures:normal;font-variant-caps:normal;font-variant-numeric:normal;font-feature-settings:normal;text-align:start;writing-mode:lr-tb;text-anchor:start;fill:#2977b9;fill-opacity:1;stroke:none;stroke-width:0.79413944px;stroke-opacity:1"
         id="path907" />
    </g>
    <g
       aria-label="Yglu"
       transform="scale(1.0097211,0.99037249)"
       style="font-style:normal;font-variant:normal;font-weight:normal;font-stretch:normal;font-size:29.50170898px;line-height:120.00000477%;font-family:Bangers;-inkscape-font-specification:'Bangers, Normal';font-variant-ligatures:normal;font-variant-caps:normal;font-variant-numeric:normal;font-feature-settings:normal;text-align:start;letter-spacing:0px;word-spacing:0px;writing-mode:lr-tb;text-anchor:start;fill:#ddf2fd;fill-opacity:1;stroke:#2977b9;stroke-width:1.27400005;stroke-linecap:butt;stroke-linejoin:miter;stroke-miterlimit:4;stroke-dasharray:none;stroke-opacity:1"
       id="text853-1-0">
      <path
         d="m 31.58252,35.954008 1.357078,-5.929843 q 0,-1.268574 -0.059,-2.743659 -0.0295,-1.504587 -0.118007,-3.009174 -0.0885,-1.504588 -0.17701,-2.891168 -0.0885,-1.416082 -0.147509,-2.478143 -0.059,-1.091564 -0.118006,-1.740601 -0.059,-0.649038 -0.059,-0.649038 l 4.808779,-1.829106 v 3.599209 q 0,0.737542 0,1.504587 0,0.767044 -0.0295,1.504587 0,0.737543 0,1.38658 0,0.649038 0,1.091564 0.383522,-1.003059 0.914553,-2.478144 0.560532,-1.475085 1.03256,-2.861666 0.560532,-1.622594 1.150566,-3.422198 l 4.572765,1.03256 q -1.268573,2.537147 -2.478143,5.044792 -0.501529,1.091563 -1.062062,2.271632 -0.560532,1.150566 -1.121065,2.330635 -0.560532,1.150566 -1.091563,2.242129 -0.531031,1.091564 -0.973556,2.035618 -0.147509,0.767045 -0.383522,1.681598 -0.206512,0.914553 -0.413024,1.740601 -0.265516,0.973556 -0.560533,1.947112 z"
         style="font-style:normal;font-variant:normal;font-weight:normal;font-stretch:normal;font-size:29.50170898px;font-family:Bangers;-inkscape-font-specification:'Bangers, Normal';font-variant-ligatures:normal;font-variant-caps:normal;font-variant-numeric:normal;font-feature-settings:normal;text-align:start;writing-mode:lr-tb;text-anchor:start;fill:#ddf2fd;fill-opacity:1;stroke:#2977b9;stroke-width:1.27400005;stroke-miterlimit:4;stroke-dasharray:none;stroke-opacity:1"
         id="path895" />
      <path
         d="m 56.711062,25.156383 q -0.206512,3.009174 -1.180068,5.251304 -0.973557,2.212628 -2.360137,3.717215 -1.357079,1.504588 -2.950171,2.24213 -1.563591,0.737543 -2.979673,0.737543 -1.091563,0 -2.094621,-0.472027 -0.973556,-0.472028 -1.711099,-1.416082 -0.708041,-0.973557 -1.121065,-2.419141 -0.413024,-1.445583 -0.413024,-3.392696 0,-3.805721 1.091563,-6.637885 1.091564,-2.832164 2.743659,-4.720273 1.681598,-1.888109 3.569707,-2.802662 1.917611,-0.914553 3.569707,-0.914553 1.180068,0 2.035618,0.413024 0.885051,0.413023 1.445583,1.121065 0.560533,0.678539 0.796547,1.622594 0.265515,0.914552 0.265515,1.947112 l -4.041734,0.767045 q -0.265516,-1.180069 -0.708041,-1.681598 -0.442526,-0.501529 -1.003058,-0.501529 -0.737543,0 -1.622594,1.062062 -0.885052,1.03256 -1.652096,2.684655 -0.767044,1.652096 -1.298075,3.628711 -0.531031,1.976614 -0.590034,3.894225 0,1.829106 0.53103,2.625652 0.560533,0.767045 1.416082,0.767045 0.590035,0 1.209571,-0.295017 0.649037,-0.295018 1.150566,-0.826048 0.501529,-0.560533 0.826048,-1.268574 0.354021,-0.737543 0.383522,-1.593092 l -3.156683,0.472027 0.560533,-2.920669 q 1.38658,-0.17701 2.714157,-0.35402 1.121065,-0.147509 2.360137,-0.354021 1.268573,-0.206512 2.212628,-0.383522 z"
         style="font-style:normal;font-variant:normal;font-weight:normal;font-stretch:normal;font-size:29.50170898px;font-family:Bangers;-inkscape-font-specification:'Bangers, Normal';font-variant-ligatures:normal;font-variant-caps:normal;font-variant-numeric:normal;font-feature-settings:normal;text-align:start;writing-mode:lr-tb;text-anchor:start;fill:#ddf2fd;fill-opacity:1;stroke:#2977b9;stroke-width:1.27400005;stroke-miterlimit:4;stroke-dasharray:none;stroke-opacity:1"
         id="path897" />
      <path
         d="m 63.497837,35.452479 q -0.914553,0 -1.947112,0.059 -1.003058,0.059 -2.035618,0.17701 -1.03256,0.118007 -2.035618,0.324519 -0.973557,0.17701 -1.770103,0.442525 0.177011,-1.327577 0.413024,-2.950171 0.236014,-1.622594 0.531031,-3.363194 0.324519,-1.740601 0.619536,-3.510704 0.324519,-1.770102 0.649037,-3.392696 0.737543,-3.864724 1.563591,-7.876957 l 5.162799,-0.678539 q -0.796546,3.422198 -1.534089,6.667386 -0.324519,1.386581 -0.649037,2.891168 -0.324519,1.475085 -0.619536,2.891167 -0.295017,1.416082 -0.531031,2.743659 -0.236014,1.327577 -0.383522,2.360137 0.737542,-0.059 1.56359,-0.059 0.85555,-0.0295 1.504587,-0.0295 0.0295,0.560532 0.08851,1.121065 0.059,0.531031 0.118006,0.973556 0.08851,0.442526 0.118007,0.796546 0.059,0.324519 0.0885,0.442526 -0.236013,0 -0.472027,0 -0.206512,-0.0295 -0.442526,-0.0295 z"
         style="font-style:normal;font-variant:normal;font-weight:normal;font-stretch:normal;font-size:29.50170898px;font-family:Bangers;-inkscape-font-specification:'Bangers, Normal';font-variant-ligatures:normal;font-variant-caps:normal;font-variant-numeric:normal;font-feature-settings:normal;text-align:start;writing-mode:lr-tb;text-anchor:start;fill:#ddf2fd;fill-opacity:1;stroke:#2977b9;stroke-width:1.27400005;stroke-miterlimit:4;stroke-dasharray:none;stroke-opacity:1"
         id="path899" />
      <path
         d="m 76.559258,30.643701 q -0.413024,1.681597 -1.180069,2.861665 -0.737542,1.180069 -1.770102,1.947113 -1.003058,0.767045 -2.153625,1.121065 -1.150567,0.354021 -2.301133,0.354021 -0.67854,0 -1.386581,-0.236014 -0.708041,-0.206512 -1.268573,-0.649038 -0.560533,-0.442525 -0.944055,-1.121064 -0.35402,-0.67854 -0.35402,-1.593093 0,-0.118007 0,-0.236013 0,-0.118007 0.0295,-0.236014 0.118007,-1.20957 0.383523,-2.920669 0.265515,-1.711099 0.560532,-3.569707 0.295017,-1.858608 0.649038,-3.717215 0.35402,-1.88811 0.619536,-3.422199 0.295017,-1.534089 0.501529,-2.537147 0.206512,-1.032559 0.265515,-1.268573 0.619536,-0.059 1.475085,-0.147509 0.85555,-0.0885 1.593093,-0.147508 0.914553,-0.0885 1.799604,-0.17701 -0.767044,3.569706 -1.357079,6.460874 -0.265515,1.239072 -0.53103,2.478143 -0.236014,1.239072 -0.472028,2.271632 -0.206512,1.03256 -0.383522,1.799604 -0.147508,0.737543 -0.265515,1.20957 -0.0885,0.472028 -0.236014,1.20957 -0.118007,0.708041 -0.118007,1.298076 0,0.472027 0.236014,0.796546 0.236014,0.295017 0.590034,0.295017 0.501529,0 0.826048,-0.383522 0.324519,-0.413024 0.531031,-0.973557 0.236013,-0.560532 0.324518,-1.121065 0.118007,-0.590034 0.206512,-0.914553 0.177011,-0.855549 0.383523,-1.888109 0.236013,-1.062062 0.442525,-2.183127 0.236014,-1.150566 0.442526,-2.330635 0.236014,-1.180068 0.442526,-2.301133 0.501529,-2.59615 0.973556,-5.369311 l 4.48426,-0.295017 q 0,0 -0.147509,0.767044 -0.147508,0.767045 -0.383522,2.035618 -0.236014,1.268574 -0.531031,2.891168 -0.265515,1.622594 -0.619536,3.392696 -0.35402,1.740601 -0.708041,3.4517 -0.324519,1.681598 -0.649037,3.09768 z"
         style="font-style:normal;font-variant:normal;font-weight:normal;font-stretch:normal;font-size:29.50170898px;font-family:Bangers;-inkscape-font-specification:'Bangers, Normal';font-variant-ligatures:normal;font-variant-caps:normal;font-variant-numeric:normal;font-feature-settings:normal;text-align:start;writing-mode:lr-tb;text-anchor:start;fill:#ddf2fd;fill-opacity:1;stroke:#2977b9;stroke-width:1.27400005;stroke-miterlimit:4;stroke-dasharray:none;stroke-opacity:1"
         id="path901" />
    </g>
    <path
       style="fill:#ddf2fd;fill-opacity:1;fill-rule:evenodd;stroke:#2977b9;stroke-width:1.27400005;stroke-linecap:butt;stroke-linejoin:miter;stroke-miterlimit:4;stroke-dasharray:none;stroke-opacity:1"
       d="m 135.04522,40.314111 c 4.0231,-0.707454 9.80944,-5.182491 9.80944,-5.182491 -3.81495,-0.392062 -7.0163,-2.823933 -7.0163,-2.823933 -0.0513,4.11949 -1.0044,5.561539 -2.79314,8.006424 z"
       id="path891"
       inkscape:connector-curvature="0"
       sodipodi:nodetypes="cccc" />
    <path
       style="fill:#ddf2fd;fill-opacity:1;fill-rule:evenodd;stroke:none;stroke-width:0.26458332px;stroke-linecap:butt;stroke-linejoin:miter;stroke-opacity:1"
       d="m 138.39192,34.14042 0.16705,-3.040191 6.64832,2.88985 c -0.72942,0.545676 -1.34628,1.13514 -2.02122,1.561858 z"
       id="path893"
       inkscape:connector-curvature="0"
       sodipodi:nodetypes="ccccc" />
  </g>
  <g
     inkscape:groupmode="layer"
     id="layer2"
     inkscape:label="Layer 2">
    <text
       xml:space="preserve"
       style="font-style:normal;font-variant:normal;font-weight:normal;font-stretch:normal;font-size:57.63003922px;line-height:120.00000477%;font-family:FreeSans;-inkscape-font-specification:'FreeSans, Normal';text-align:start;letter-spacing:0px;word-spacing:0px;writing-mode:lr-tb;text-anchor:start;fill:#a7daf5;fill-opacity:1;stroke:none;stroke-width:3.08732343px;stroke-linecap:butt;stroke-linejoin:miter;stroke-opacity:1"
       x="73.537262"
       y="65.171928"
       id="text819"><tspan
         sodipodi:role="line"
         id="tspan817"
         x="73.537262"
         y="65.171928"
         style="fill:#a7daf5;fill-opacity:1;stroke-width:3.08732343px">ᕄ</tspan></text>
  </g>
</svg>
